<?xml version="1.0" encoding="utf-8"?>
<!-- Generator: Adobe Illustrator 17.1.0, SVG Export Plug-In . SVG Version: 6.00 Build 0)  -->
<!DOCTYPE svg PUBLIC "-//W3C//DTD SVG 1.1//EN" "http://www.w3.org/Graphics/SVG/1.1/DTD/svg11.dtd">
<svg version="1.1" id="Calque_1" xmlns="http://www.w3.org/2000/svg" xmlns:xlink="http://www.w3.org/1999/xlink" x="0px" y="0px"
	 viewBox="0 0 148 132" enable-background="new 0 0 148 132" xml:space="preserve">
<rect x="-230.8" y="-379" fill="#BABEBF" width="28.7" height="2.7"/>
<polygon fill="#FFFFFF" points="-393.9,-300.4 -393.9,-280.4 -381.2,-291 "/>
<g>
	<path fill="#0E263A" d="M-172.6,31.5c0,4.4-3.6,7.9-8,7.9h-621.3c-4.4,0-8-3.6-8-7.9v-417.2c0-4.4,3.6-7.9,8-7.9h621.3
		c4.4,0,8,3.6,8,7.9V31.5z"/>
	<g>
		<defs>
			<path id="SVGID_1_" d="M-172.1,36.8c0,4.4-3.6,8-8,8h-620.8c-4.4,0-8-3.6-8-8v-28c0-4.3,599.4-3.2,635.1-3.1
				c0.9,0,1.6,0.7,1.6,1.6V36.8z"/>
		</defs>
		<use xlink:href="#SVGID_1_"  overflow="visible" fill="#BFC6C9"/>
		<clipPath id="SVGID_2_">
			<use xlink:href="#SVGID_1_"  overflow="visible"/>
		</clipPath>
		<path clip-path="url(#SVGID_2_)" fill="#BFC6C9" d="M-110,49.5h-716.1c-0.9,0-1.6-0.7-1.6-1.6V-9c0-0.9,0.7-1.6,1.6-1.6H-110
			c0.9,0,1.6,0.7,1.6,1.6v56.8C-108.3,48.7-109.1,49.5-110,49.5z"/>
	</g>
	<g>
		<defs>
			<path id="SVGID_3_" d="M-172.1,30.2c0,4.4-3.7,11-9,11h-620.8c-4.4,0-8-3.6-8-8v-418c0-4.4,3.6-7.9,8-7.9h620.8
				c4.4,0,8,3.6,8,7.9L-172.1,30.2z"/>
		</defs>
		<clipPath id="SVGID_4_">
			<use xlink:href="#SVGID_3_"  overflow="visible"/>
		</clipPath>
		<path clip-path="url(#SVGID_4_)" fill="#E9EDED" d="M-111,45.9H-827c-0.9,0-1.6-0.7-1.6-1.6v-56.8c0-0.9,0.7-1.6,1.6-1.6H-111
			c0.9,0,1.6,0.7,1.6,1.6v56.8C-109.3,45.1-110.1,45.9-111,45.9z"/>
	</g>
	<path fill="#ABAFBB" d="M-198.6-35.3h-585.2c-0.9,0-1.6-0.7-1.6-1.6v-331.9c0-0.9,0.7-1.6,1.6-1.6h585.2c0.9,0,1.6,0.7,1.6,1.6
		v331.9C-197-36-197.7-35.3-198.6-35.3z"/>
	<g>
		<path fill="#BFC6C9" d="M-397.2,127.1c-2.8-1.9-21.1-10.2-23.3-16.9c-1.6-4.7-6-56.6-6.8-66.2c-0.1-0.9-0.8-1.5-1.6-1.5l-62.1,0.2
			l-62.1-0.2c-0.9,0-1.6,0.6-1.6,1.5c-0.8,9.6-5.2,61.5-6.8,66.2c-2.2,6.7-20.5,15-23.3,16.9c-0.9,0.6-0.6,1.8,0,2.8
			c0.3,0.5,0.8,0.7,1.4,0.7h184.8c0.5,0,1.1-0.3,1.4-0.7C-396.5,128.9-396.2,127.7-397.2,127.1z"/>
	</g>
	<path fill="#E9EDED" d="M-398.8,127.1h-183.7c-0.9,0-1.6,0.7-1.6,1.6v0.3c0,0.9,0.7,1.6,1.6,1.6h183.7c0.9,0,1.6-0.7,1.6-1.6v-0.3
		C-397.2,127.8-397.9,127.1-398.8,127.1z"/>
	<path fill="#E9EDED" d="M-553.4,46.4h125c0.8,0,1.6,0.6,1.6,1.5l6.1,60.6c0.1,1-0.7,1.8-1.6,1.8h-137.3c-1,0-1.7-0.8-1.6-1.8
		l6.2-60.6C-555,47-554.2,46.4-553.4,46.4z"/>
</g>
<path fill="#0E263A" d="M-477,9.7c-0.2-0.9-1-1.5-2-1.3c0,0,0,0,0,0c-0.6,0.1-1.2,0.2-1.8,0.2c-1.2,0-2-0.3-2.4-1
	c-0.4-0.7-0.6-1.5-0.6-2.6v-4.9c0-0.9,0.7-1.6,1.6-1.6h3.1c0.9,0,1.6-0.7,1.6-1.6v-1.1c0-0.9-0.7-1.6-1.6-1.6h-4.7h0v-2.1
	c0-1.2-1.2-2-2.3-1.5l-2.9,1.4l0,0v9.3c-0.5-0.6-1.1-1.2-1.6-1.8c-0.6-0.6-1.1-1.2-1.6-1.8c-0.5-0.6-1-1.2-1.5-1.7
	c-0.1-0.1-0.2-0.3-0.3-0.4c-0.5-0.6-1.3-0.7-1.9-0.4l-1.3,0.6c-1,0.5-1.3,1.8-0.5,2.6c0.1,0.1,0.2,0.2,0.3,0.3
	c0.9,0.9,1.8,1.9,2.8,2.9c0.6,0.6,0.6,1.6,0,2.3c-0.3,0.4-0.7,0.8-1.1,1.2c-0.8,0.9-1.5,1.8-2.2,2.8c-0.7,0.9-1.4,1.9-2,2.8
	c0,0,0,0.1-0.1,0.1c-0.7,1.1,0.1,2.5,1.4,2.5h2.3c0.6,0,1.1-0.3,1.4-0.8c0.3-0.4,0.5-0.8,0.8-1.3c0.5-0.7,1-1.5,1.5-2.2
	c0.5-0.7,1.1-1.5,1.7-2.2c0.6-0.7,1.2-1.3,1.8-1.7v0.2c0,0,0,0,0,0c0,1.2,0.1,2.3,0.3,3.3c0.2,1,0.6,1.8,1.2,2.5
	c0.6,0.7,1.3,1.2,2.3,1.6c0.4,0.2,0.9,0.3,1.5,0.4c0.6,0.1,1.3,0.2,2.1,0.2c1.1,0,2.1-0.1,2.9-0.3c0.2-0.1,0.5-0.1,0.7-0.2
	c0.8-0.2,1.3-1,1.2-1.9L-477,9.7z"/>
<rect x="-785.2" y="-385.3" fill="#767983" width="589" height="21"/>
<rect x="-754.1" y="-377.3" fill="#BABEBF" width="25.5" height="5"/>
<rect x="-785.3" y="-194" fill="#BABEBF" width="53.2" height="7.9"/>
<rect x="-732" y="-194" fill="#BABEBF" width="55.2" height="7.9"/>
<rect x="-722.2" y="-377.3" opacity="0.55" fill="#BABEBF" width="25.5" height="5"/>
<rect x="-620.6" y="-377.3" fill="#BABEBF" width="17.3" height="5"/>
<rect x="-595.4" y="-377.3" fill="#BABEBF" width="17.3" height="5"/>
<rect x="-570.6" y="-377.3" fill="#BABEBF" width="17.3" height="5"/>
<rect x="-546.5" y="-377.3" fill="#BABEBF" width="17.3" height="5"/>
<rect x="-579.2" y="-362.4" width="381.3" height="152"/>
<rect x="-784.7" y="-363.7" fill="#CCD0D6" width="85.3" height="166.7"/>
<rect x="-785.4" y="-208.4" fill="#767983" width="588.7" height="12.3"/>
<line fill="none" stroke="#767983" stroke-miterlimit="10" x1="-639.9" y1="-363.4" x2="-639.9" y2="-208"/>
<rect x="-733.2" y="-183.7" opacity="0.47" fill="#767983" width="537" height="61.2"/>
<rect x="-733.3" y="-116.9" opacity="0.47" fill="#767983" width="536.3" height="71"/>
<rect x="-733.1" y="-116.4" opacity="0.63" fill="#7FA0A0" width="535.2" height="16"/>
<rect x="-732.1" y="-98" opacity="0.57" fill="#7FA0A0" width="535.2" height="16"/>
<rect x="-732.7" y="-139.4" opacity="0.57" fill="#2CB4FF" width="535.5" height="16.7"/>
<rect x="-732.1" y="-79.4" opacity="0.57" fill="#7FA0A0" width="535.2" height="16"/>
<g>
	<rect x="-782.1" y="-134.3" fill="#767983" width="6.8" height="6.7"/>
	<g>
		<rect x="-767.1" y="-133.5" fill="none" stroke="#767983" stroke-miterlimit="10" width="3.2" height="5.9"/>
		<rect x="-762.7" y="-133.5" fill="none" stroke="#767983" stroke-miterlimit="10" width="1.6" height="5.9"/>
	</g>
	<g>
		<circle fill="#0E263A" cx="-748.4" cy="-130.3" r="1.7"/>
		<g>
			<ellipse fill="none" stroke="#000000" stroke-miterlimit="10" cx="-748.4" cy="-130.3" rx="4" ry="1.8"/>
		</g>
	</g>
	<line fill="none" stroke="#767983" stroke-width="0.5" stroke-miterlimit="10" x1="-784.1" y1="-123" x2="-733.4" y2="-123"/>
	<line fill="none" stroke="#767983" stroke-width="0.5" stroke-miterlimit="10" x1="-784.1" y1="-138.4" x2="-733.4" y2="-138.4"/>
</g>
<g>
	<rect x="-782.1" y="-110.5" fill="#767983" width="6.8" height="6.7"/>
	<g>
		<rect x="-767.1" y="-109.7" fill="none" stroke="#767983" stroke-miterlimit="10" width="3.2" height="5.9"/>
		<rect x="-762.7" y="-109.7" fill="none" stroke="#767983" stroke-miterlimit="10" width="1.6" height="5.9"/>
	</g>
	<g>
		<circle fill="#0E263A" cx="-748.4" cy="-106.5" r="1.7"/>
		<g>
			<ellipse fill="none" stroke="#000000" stroke-miterlimit="10" cx="-748.4" cy="-106.5" rx="4" ry="1.8"/>
		</g>
	</g>
	<line fill="none" stroke="#767983" stroke-width="0.5" stroke-miterlimit="10" x1="-784.1" y1="-99.2" x2="-733.4" y2="-99.2"/>
	<line fill="none" stroke="#767983" stroke-width="0.5" stroke-miterlimit="10" x1="-784.1" y1="-114.5" x2="-733.4" y2="-114.5"/>
</g>
<g>
	<rect x="-782.1" y="-93.4" fill="#767983" width="6.8" height="6.7"/>
	<g>
		<rect x="-767.1" y="-92.7" fill="none" stroke="#767983" stroke-miterlimit="10" width="3.2" height="5.9"/>
		<rect x="-762.7" y="-92.7" fill="none" stroke="#767983" stroke-miterlimit="10" width="1.6" height="5.9"/>
	</g>
	<g>
		<circle fill="#0E263A" cx="-748.4" cy="-89.5" r="1.7"/>
		<g>
			<ellipse fill="none" stroke="#000000" stroke-miterlimit="10" cx="-748.4" cy="-89.5" rx="4" ry="1.8"/>
		</g>
	</g>
	<line fill="none" stroke="#767983" stroke-width="0.5" stroke-miterlimit="10" x1="-784.1" y1="-82.2" x2="-733.4" y2="-82.2"/>
	<line fill="none" stroke="#767983" stroke-width="0.5" stroke-miterlimit="10" x1="-784.1" y1="-97.5" x2="-733.4" y2="-97.5"/>
</g>
<g>
	<rect x="-782.1" y="-77.1" fill="#767983" width="6.8" height="6.7"/>
	<g>
		<rect x="-767.1" y="-76.3" fill="none" stroke="#767983" stroke-miterlimit="10" width="3.2" height="5.9"/>
		<rect x="-762.7" y="-76.3" fill="none" stroke="#767983" stroke-miterlimit="10" width="1.6" height="5.9"/>
	</g>
	<g>
		<circle fill="#0E263A" cx="-748.4" cy="-73.2" r="1.7"/>
		<g>
			<ellipse fill="none" stroke="#000000" stroke-miterlimit="10" cx="-748.4" cy="-73.2" rx="4" ry="1.8"/>
		</g>
	</g>
	<line fill="none" stroke="#767983" stroke-width="0.5" stroke-miterlimit="10" x1="-784.1" y1="-65.8" x2="-733.4" y2="-65.8"/>
	<line fill="none" stroke="#767983" stroke-width="0.5" stroke-miterlimit="10" x1="-784.1" y1="-81.2" x2="-733.4" y2="-81.2"/>
</g>
<g>
	<polygon fill="#0E263A" points="-713.5,-130.1 -715.2,-130.2 -715.3,-131 -715.5,-129.3 -715.8,-130.8 -716,-130 -716.4,-131.5
		-716.7,-130.4 -717.1,-132.5 -717.5,-130.2 -717.8,-130.2 -718.2,-132.1 -718.6,-130.6 -718.9,-132.3 -719.3,-129.9 -719.7,-133.7
		-720.3,-130.9 -720.9,-134.6 -721.6,-130.3 -722.4,-138.2 -722.8,-132 -723.1,-134.3 -723.4,-131.8 -723.9,-135.9 -724.5,-130.2
		-725,-130.2 -725.6,-134 -726.1,-129.6 -726.9,-133.1 -727.6,-129.3 -728,-130.2 -728.9,-130.2 -729.2,-131.7 -729.7,-129.7
		-730.2,-130.7 -730.4,-130.2 -731.5,-130.1 -730.4,-130.1 -730.2,-130.4 -729.6,-129.1 -729.2,-130.7 -728.9,-130.1 -728.1,-130.1
		-727.6,-128.6 -726.9,-131.4 -726,-128.7 -725.5,-131.8 -725.1,-130.1 -724.4,-130.1 -723.9,-132.5 -723.4,-128.9 -723.1,-131.3
		-722.7,-127.8 -722.3,-131.1 -721.6,-124.2 -720.9,-132.3 -720.2,-129.2 -719.8,-132.1 -719.3,-128.6 -718.9,-131.2 -718.6,-129.6
		-718.2,-131.2 -718,-130.1 -717.5,-130.1 -717.1,-131.5 -716.8,-129.3 -716.4,-131 -716,-129.6 -715.8,-130.1 -715.5,-129
		-715.3,-130.1 	"/>
</g>
<g>
	<polygon fill="#0E263A" points="-708.7,-129.9 -706.1,-129.9 -705.9,-130.4 -705.5,-129.4 -705.2,-130.3 -704.9,-129.8
		-704.3,-130.7 -703.8,-130 -703.2,-131.3 -702.5,-129.9 -702.1,-129.9 -701.4,-131 -700.9,-130.2 -700.4,-131.2 -699.8,-129.7
		-699.2,-132 -698.3,-130.3 -697.4,-132.5 -696.4,-130 -695.2,-134.7 -694.5,-131 -694.1,-132.4 -693.6,-130.9 -692.8,-133.3
		-691.8,-129.9 -691.2,-129.9 -690.3,-132.2 -689.5,-129.6 -688.2,-131.6 -687.1,-129.4 -686.5,-129.9 -685.2,-129.9 -684.7,-130.8
		-684,-129.6 -683.2,-130.2 -682.9,-129.9 -681.2,-129.9 -682.9,-129.9 -683.2,-130.1 -684,-129.3 -684.7,-130.2 -685.1,-129.9
		-686.4,-129.9 -687.2,-129 -688.3,-130.7 -689.5,-129 -690.3,-130.9 -691,-129.9 -692.1,-129.9 -692.8,-131.3 -693.5,-129.2
		-694,-130.6 -694.6,-128.5 -695.2,-130.5 -696.4,-126.4 -697.4,-131.2 -698.4,-129.3 -699.1,-131.1 -699.8,-129 -700.4,-130.5
		-700.8,-129.6 -701.4,-130.5 -701.8,-129.9 -702.6,-129.9 -703.2,-130.7 -703.7,-129.4 -704.3,-130.4 -704.9,-129.6 -705.2,-129.9
		-705.5,-129.2 -705.9,-129.9 	"/>
</g>
<rect x="-579.7" y="-216.4" fill="#CCD0D6" width="382.7" height="6"/>
<rect x="-784.4" y="-216.2" fill="#E9EDED" width="203.7" height="6"/>
<rect x="-586.4" y="-363.5" fill="#E9EDED" width="6" height="146.2"/>
<line fill="none" stroke="#231F20" stroke-width="0.5" stroke-miterlimit="10" x1="-730.6" y1="-129.9" x2="-517.6" y2="-129.9"/>
<g>
	<polygon fill="#E9EDED" points="340.7,-200.6 368.9,-210.1 373.1,-199.9 347.8,-188.5 	"/>
	<g>

			<ellipse transform="matrix(0.9802 -0.1982 0.1982 0.9802 27.5316 25.3988)" fill="#121919" cx="140.6" cy="-124.8" rx="6.3" ry="13.6"/>

			<ellipse transform="matrix(0.9802 -0.1982 0.1982 0.9802 27.2219 24.5099)" fill="#3B382F" cx="136" cy="-123.7" rx="5.3" ry="11.4"/>
		<polygon fill="#121919" points="350.3,-185.7 144.6,-111.8 138.7,-138.6 341.7,-204.7 		"/>

			<ellipse transform="matrix(0.9478 -0.3189 0.3189 0.9478 80.524 100.6092)" fill="#121919" cx="347.5" cy="-195.6" rx="6.8" ry="11.5"/>
	</g>
	<path fill="#121919" d="M368.7-223.7c0,0,14.8-9.5,18.1-9.2s15.2,25.4,15.2,25.4s0.2,6.6-2.1,7.8c-1.6,0.8-21,11.2-21,11.2
		s-0.6-0.9-1.7-3.4c-2.3-5.5-12.4-25.7-12.4-25.7L368.7-223.7z"/>
	<polygon fill="#121919" points="369.2,-212.5 362.6,-208.1 368,-197.5 375,-197.1 375.5,-202 	"/>

		<ellipse transform="matrix(0.9538 0.3003 -0.3003 0.9538 -41.6043 -125.6554)" fill="#767983" cx="388" cy="-198.2" rx="4.9" ry="6.6"/>

		<ellipse transform="matrix(0.9538 0.3003 -0.3003 0.9538 -41.3714 -125.9799)" fill="#121919" cx="389.2" cy="-197.6" rx="4.9" ry="6.6"/>
</g>
<g>
	<g>
		<path fill-rule="evenodd" clip-rule="evenodd" fill="#282827" d="M89.8,19.4L89.8,19.4L89.8,19.4L89.8,19.4
			c-2.6,0.2-4.9-1-7.1-2.4l-0.1,0l-0.1-0.1l-6.3-4.2l0.3-5.3l10.4,5.1l3.2,1.6l-0.2,3.4c0.8,0.2,1.7,0.3,2.8,0.4L89.8,19.4
			L89.8,19.4z"/>
		<path fill-rule="evenodd" clip-rule="evenodd" fill="#4C4C4C" d="M90.1,14.1c-2.7,0.3-5-1.1-7.3-2.5l-6.3-4.2l2.9-1.5l6.8,4.5
			c2.4,1.6,3.8,1.9,6.7,2.2L90.1,14.1L90.1,14.1z"/>
		<polygon fill-rule="evenodd" clip-rule="evenodd" fill="#282827" points="90.1,14.1 89.8,19.4 92.7,17.9 93,12.6 90.1,14.1 		"/>
		<polygon fill-rule="evenodd" clip-rule="evenodd" fill="#282827" points="123.8,70.6 36.3,12.6 59.6,1 147.1,59 123.8,70.6 		"/>
		<polygon fill-rule="evenodd" clip-rule="evenodd" points="124.6,70.9 120.8,131.6 33.3,73.6 37.1,12.9 124.6,70.9 		"/>
		<polygon fill-rule="evenodd" clip-rule="evenodd" fill="#4C4C4C" points="123.8,70.6 120.1,131.3 143.3,119.7 147.1,59
			123.8,70.6 		"/>
		<polygon fill-rule="evenodd" clip-rule="evenodd" points="77.5,60.2 73.8,120.9 44.8,101.7 48.5,41 77.5,60.2 		"/>
		<polygon fill-rule="evenodd" clip-rule="evenodd" fill="#3F3F3F" points="77.5,60.2 48.5,41 55.6,25.4 100.5,55.1 77.5,60.2 		"/>
		<polygon fill-rule="evenodd" clip-rule="evenodd" fill="#4C4C4C" points="80.1,41.5 62.8,30.1 90.1,21.2 107.4,32.7 80.1,41.5
			"/>
		<polygon fill-rule="evenodd" clip-rule="evenodd" fill="#2B2B2B" points="77.5,60.2 48.5,41 62.8,30.1 80.1,41.6 77.5,60.2 		"/>
		<polygon fill-rule="evenodd" clip-rule="evenodd" points="100.5,55.1 96.7,115.8 73.8,120.9 77.5,60.2 100.5,55.1 		"/>
		<polygon fill-rule="evenodd" clip-rule="evenodd" fill="#686868" points="80.1,41.5 107.5,32.7 77.5,60.2 80.1,41.5 		"/>
		<path fill-rule="evenodd" clip-rule="evenodd" d="M50.3,58.6L50.3,58.6L50.3,58.6L50.3,58.6L50.3,58.6L50.3,58.6L50.3,58.6
			L37.5,65L57,101.5l13.3-6.6c2.5-1.3,4.2-4.2,4.4-8.5c0.3-4.5-1.1-9.7-3.5-14.4c-2.4-4.7-6-8.9-10-11.6c-4-2.7-7.8-3.2-10.6-2
			C50.5,58.5,50.4,58.5,50.3,58.6L50.3,58.6z"/>
		<path fill-rule="evenodd" clip-rule="evenodd" fill="#282827" d="M34.5,54.1L34.5,54.1L34.5,54.1L34.5,54.1L34.5,54.1L34.5,54.1
			L34.5,54.1L11.7,65.5l30.8,57.7l23.7-11.8c4-2.1,6.6-6.7,7-13.4c0.4-7.1-1.7-15.3-5.6-22.7c-3.9-7.4-9.4-14.1-15.8-18.3
			c-6.3-4.2-12.2-5.1-16.7-3.2C34.9,53.9,34.7,54,34.5,54.1L34.5,54.1z"/>
		<path fill-rule="evenodd" clip-rule="evenodd" d="M28.7,68.5c-6.3-4.2-12.2-5.1-16.7-3.2C7.5,67.2,4.6,72,4.1,79.1
			c-0.4,7.1,1.7,15.3,5.6,22.7c3.9,7.4,9.4,14.1,15.7,18.3c6.3,4.2,12.2,5.1,16.7,3.2c4.4-1.9,7.4-6.7,7.8-13.8
			c0.4-7.1-1.7-15.3-5.6-22.7C40.5,79.4,35,72.7,28.7,68.5L28.7,68.5z"/>
		<path fill-rule="evenodd" clip-rule="evenodd" fill="#4C4C4C" d="M28.3,74.5c-4.9-3.2-9.4-3.9-12.8-2.4c-3.4,1.5-5.7,5.1-6,10.6
			c-0.3,5.5,1.3,11.7,4.3,17.4c3,5.7,7.2,10.8,12.1,14c4.9,3.2,9.4,3.9,12.8,2.5c3.4-1.5,5.7-5.1,6-10.6c0.3-5.5-1.3-11.7-4.3-17.4
			C37.4,82.9,33.1,77.7,28.3,74.5L28.3,74.5z"/>
		<polygon fill-rule="evenodd" clip-rule="evenodd" fill="#4C4C4C" points="94.1,32.1 82.2,24.2 94.1,18.3 106,26.2 94.1,32.1 		"/>
		<polygon fill-rule="evenodd" clip-rule="evenodd" fill="#4C4C4C" points="94.1,32.1 93.9,35.4 105.7,31.6 106,26.2 94.1,32.1
			"/>
		<polygon fill-rule="evenodd" clip-rule="evenodd" fill="#282827" points="94.1,32.1 93.9,35.4 82,27.5 82.2,24.2 94.1,32.1 		"/>
		<polygon fill-rule="evenodd" clip-rule="evenodd" fill="#BECDC7" points="83.3,21.8 83.1,24.8 95,18.9 95.2,15.9 83.3,21.8 		"/>
		<polygon fill-rule="evenodd" clip-rule="evenodd" fill="#2E4359" points="83.3,21.8 82.4,21.2 82.2,24.2 83.1,24.8 83.3,21.8
			"/>
		<polygon fill-rule="evenodd" clip-rule="evenodd" fill="#2E4359" points="84.9,22.9 82.4,21.2 82.3,22.4 84.8,24 84.9,22.9 		"/>
		<polygon fill-rule="evenodd" clip-rule="evenodd" fill="#4C4C4C" points="82.4,21.2 94.3,15.3 96.8,17 84.9,22.9 82.4,21.2 		"/>
		<polygon fill-rule="evenodd" clip-rule="evenodd" fill="#282827" points="84.9,22.9 84.8,24 96.7,18.1 96.8,17 84.9,22.9 		"/>
		<polygon fill-rule="evenodd" clip-rule="evenodd" fill="#282827" points="94.3,29.1 94.1,32.1 106,26.2 106.2,23.2 94.3,29.1
			"/>
		<polygon fill-rule="evenodd" clip-rule="evenodd" fill="#2E4359" points="94.3,29.1 93.4,28.6 93.3,31.5 94.1,32.1 94.3,29.1
			"/>
		<polygon fill-rule="evenodd" clip-rule="evenodd" fill="#2E4359" points="94.3,29.1 91.8,27.5 91.7,28.7 94.2,30.3 94.3,29.1
			"/>
		<path fill-rule="evenodd" clip-rule="evenodd" fill="#2E4359" d="M93.4,24.8c0.2,0.2,0.3,0.4,0.3,0.6c0,0.2-0.1,0.4-0.4,0.6
			c-0.3,0.2-0.6,0.2-0.9,0.2c-0.3,0-0.6-0.1-0.9-0.3c-0.2-0.2-0.3-0.4-0.3-0.6c0-0.2,0.1-0.4,0.4-0.6c0.3-0.1,0.6-0.2,0.9-0.2
			C92.8,24.5,93.1,24.6,93.4,24.8L93.4,24.8z"/>
		<polygon fill-rule="evenodd" clip-rule="evenodd" fill="#4C4C4C" points="91.8,27.5 103.7,21.6 106.2,23.2 94.3,29.1 91.8,27.5
			"/>
		<path fill-rule="evenodd" clip-rule="evenodd" fill="#282827" d="M134.5,57.1c0,0.1,0,0.2,0,0.2c-0.1,1.9-1.3,3.8-3.6,5.2
			c-2.3,1.3-5.2,1.9-8.1,1.7c-2.9-0.2-5.7-1.1-7.8-2.7c-2.1-1.6-3.1-3.6-3-5.5l0,0l0,0l0.5-7.7l22.4,1.4L134.5,57.1L134.5,57.1z"/>
		<path fill-rule="evenodd" clip-rule="evenodd" fill="#4C4C4C" d="M132,44.1c2.1,1.6,3.1,3.6,3,5.6c-0.1,1.9-1.3,3.8-3.6,5.2
			c-2.3,1.3-5.2,1.9-8.1,1.7c-2.9-0.2-5.7-1.1-7.8-2.7c-2.1-1.6-3.1-3.6-3-5.6c0.1-1.9,1.3-3.8,3.6-5.2c2.3-1.3,5.2-1.9,8.1-1.7
			C127.1,41.6,129.9,42.5,132,44.1L132,44.1z"/>
		<polygon fill-rule="evenodd" clip-rule="evenodd" fill="#2E4359" points="84.6,14.9 84.6,15.8 70.4,19.2 70.5,18.3 84.6,14.9
			"/>
		<path fill-rule="evenodd" clip-rule="evenodd" fill="#282827" d="M126.8,47.2c0.8,0.6,1.1,1.3,1.1,2c0,0.7-0.5,1.4-1.3,1.9
			c-0.8,0.5-1.9,0.7-3,0.6c-1.1-0.1-2.1-0.4-2.9-1c-0.8-0.6-1.1-1.3-1.1-2c0-0.7,0.5-1.4,1.3-1.9c0.8-0.5,1.9-0.7,3-0.6
			C125,46.2,126.1,46.6,126.8,47.2L126.8,47.2z"/>
		<polygon fill-rule="evenodd" clip-rule="evenodd" fill="#4C4C4C" points="71.7,11.1 80.9,12.4 84.6,14.9 70.5,18.3 71.7,11.1
			"/>
		<path fill-rule="evenodd" clip-rule="evenodd" fill="#282827" d="M51.4,9.3l5.4,0.3c1.8-0.6,3.8-0.8,5.8-0.7c2,0.1,4,0.6,5.7,1.4
			l5.4,0.3l-0.4,6.3c0,0.1,0,0.2,0,0.2c-0.1,1.9-1.3,3.8-3.6,5.2c-2.3,1.3-5.2,1.9-8.1,1.7c-2.9-0.2-5.7-1.1-7.8-2.7
			c-2.1-1.6-3.1-3.6-3-5.5l0,0L51.4,9.3L51.4,9.3z"/>
		<path fill-rule="evenodd" clip-rule="evenodd" fill="#4C4C4C" d="M70.9,5.1c2.1,1.6,3.1,3.6,3,5.6c-0.1,1.9-1.3,3.8-3.6,5.2
			c-2.3,1.3-5.2,1.9-8.1,1.7c-2.9-0.2-5.7-1.1-7.8-2.7c-2.1-1.6-3.1-3.6-3-5.6c0.1-1.9,1.3-3.8,3.6-5.2c2.3-1.3,5.2-1.9,8.1-1.7
			C65.9,2.6,68.8,3.5,70.9,5.1L70.9,5.1z"/>
		<path fill-rule="evenodd" clip-rule="evenodd" fill="#2E4359" d="M66,7.6c0.8,0.6,1.2,1.5,1.2,2.2c0,0.8-0.5,1.5-1.5,2.1
			c-0.9,0.5-2.1,0.8-3.3,0.7c-1.2-0.1-2.3-0.4-3.1-1.1c-0.8-0.7-1.2-1.5-1.2-2.2c0-0.8,0.5-1.5,1.5-2.1c0.9-0.5,2.1-0.8,3.3-0.7
			C64,6.6,65.1,7,66,7.6L66,7.6z"/>
		<path fill-rule="evenodd" clip-rule="evenodd" fill="#282827" d="M65,8.2c0.6,0.5,0.9,1.1,0.9,1.6c0,0.6-0.4,1.1-1.1,1.5
			c-0.7,0.4-1.5,0.6-2.3,0.5c-0.8-0.1-1.7-0.3-2.3-0.8c-0.6-0.5-0.9-1.1-0.9-1.6c0-0.6,0.4-1.1,1.1-1.5c0.7-0.4,1.5-0.6,2.3-0.5
			C63.6,7.4,64.4,7.7,65,8.2L65,8.2z"/>
		<g>
			<path fill-rule="evenodd" clip-rule="evenodd" fill="#282827" d="M108.3,46.8c0.9,0.7,1.4,1.6,1.3,2.5c-0.1,0.9-0.6,1.7-1.6,2.3
				c-1,0.6-2.3,0.8-3.6,0.8c-1.3-0.1-2.5-0.5-3.5-1.2c-0.9-0.7-1.4-1.6-1.3-2.5c0.1-0.9,0.6-1.7,1.6-2.3c1-0.6,2.3-0.8,3.6-0.8
				C106.1,45.7,107.4,46.1,108.3,46.8L108.3,46.8z"/>
			<polygon fill-rule="evenodd" clip-rule="evenodd" fill="#2E4359" points="99.8,45.2 109.8,45.8 109.6,49.3 99.6,48.7 99.8,45.2
							"/>
			<path fill-rule="evenodd" clip-rule="evenodd" fill="#4C4C4C" d="M108.5,43.4c0.9,0.7,1.4,1.6,1.3,2.5c-0.1,0.9-0.6,1.7-1.6,2.3
				c-1,0.6-2.3,0.9-3.6,0.8c-1.3-0.1-2.5-0.5-3.5-1.2c-0.9-0.7-1.4-1.6-1.3-2.5c0.1-0.9,0.6-1.7,1.6-2.3c1-0.6,2.3-0.8,3.6-0.8
				C106.3,42.2,107.6,42.6,108.5,43.4L108.5,43.4z"/>
		</g>
		<polygon fill-rule="evenodd" clip-rule="evenodd" fill="#4C4C4C" points="139.2,115 145,112.1 147.7,69.1 141.9,71.9 139.2,115
			"/>
		<polygon fill-rule="evenodd" clip-rule="evenodd" fill="#686868" points="140.7,71.2 141.9,71.9 147.7,69.1 146.5,68.3
			140.7,71.2 		"/>
		<polygon fill-rule="evenodd" clip-rule="evenodd" fill="#282827" points="138.1,114.2 139.2,115 141.9,71.9 140.7,71.2
			138.1,114.2 		"/>
		<path fill-rule="evenodd" clip-rule="evenodd" d="M34.5,54.1L34.5,54.1L34.5,54.1L34.5,54.1L34.5,54.1L34.5,54.1L34.5,54.1
			L26.7,58c0.3-0.2,0.4-0.8,0.7-0.9c4.4-1.7,10.5-0.2,16.6,3.8c6.3,4.2,11.9,10.9,15.8,18.3c3.9,7.4,6,15.6,5.6,22.7
			c-0.4,6.6-3,11.2-7,13.3l-0.7,0.3l-0.2,0.1l0,0l-4.4,2.2l-0.7,0.3l-2,1c4-2.1,6.6-6.7,7-13.4c0.4-7.1-1.7-15.3-5.6-22.7
			C48,75.7,42.5,69,36.1,64.8c-6.3-4.2-12.2-5.1-16.7-3.2c-0.2,0.1-0.3,0.1-0.5,0.2l5.5-2.8l-3,1.5l0,0l0,0l0,0L19,61.8l0,0
			l-4.7,2.3l0,0c0.1-0.1,0.2-0.1,0.4-0.2c4.4-1.9,10.3-1,16.7,3.2c6.3,4.2,11.9,10.9,15.8,18.3c3.9,7.4,6,15.6,5.6,22.7
			c-0.4,6.7-3.1,11.3-7.1,13.4l20.5-10.2c4-2.1,6.6-6.7,7-13.4c0.4-7.1-1.7-15.3-5.6-22.7c-3.9-7.4-9.4-14.1-15.8-18.3
			c-6.3-4.2-12.2-5.1-16.7-3.2C34.9,53.9,34.7,54,34.5,54.1L34.5,54.1z"/>
	</g>

		<ellipse transform="matrix(0.9994 -3.526586e-02 3.526586e-02 0.9994 -2.9687 0.7405)" fill-rule="evenodd" clip-rule="evenodd" fill="#FFFFFF" cx="19.5" cy="84.5" rx="3" ry="3.4"/>
</g>
</svg>
