<?xml version="1.0" encoding="utf-8"?>
<!-- Generator: Adobe Illustrator 17.1.0, SVG Export Plug-In . SVG Version: 6.00 Build 0)  -->
<!DOCTYPE svg PUBLIC "-//W3C//DTD SVG 1.1//EN" "http://www.w3.org/Graphics/SVG/1.1/DTD/svg11.dtd">
<svg version="1.1" id="Calque_1" xmlns="http://www.w3.org/2000/svg" xmlns:xlink="http://www.w3.org/1999/xlink" x="0px" y="0px"
	 viewBox="0 0 129 62" enable-background="new 0 0 129 62" xml:space="preserve">
<rect x="-111.1" y="-234.5" fill="#BABEBF" width="28.7" height="2.7"/>
<polygon fill="#FFFFFF" points="-274.2,-155.8 -274.2,-135.8 -261.5,-146.5 "/>
<g>
	<path fill="#0E263A" d="M-52.8,176c0,4.4-3.6,7.9-8,7.9h-621.3c-4.4,0-8-3.6-8-7.9v-417.2c0-4.4,3.6-7.9,8-7.9h621.3
		c4.4,0,8,3.6,8,7.9V176z"/>
	<g>
		<defs>
			<path id="SVGID_1_" d="M-52.4,181.4c0,4.4-3.6,8-8,8h-620.8c-4.4,0-8-3.6-8-8v-28c0-4.3,599.4-3.2,635.1-3.1
				c0.9,0,1.6,0.7,1.6,1.6V181.4z"/>
		</defs>
		<use xlink:href="#SVGID_1_"  overflow="visible" fill="#BFC6C9"/>
		<clipPath id="SVGID_2_">
			<use xlink:href="#SVGID_1_"  overflow="visible"/>
		</clipPath>
		<path clip-path="url(#SVGID_2_)" fill="#BFC6C9" d="M9.7,194h-716.1c-0.9,0-1.6-0.7-1.6-1.6v-56.8c0-0.9,0.7-1.6,1.6-1.6H9.7
			c0.9,0,1.6,0.7,1.6,1.6v56.8C11.4,193.2,10.7,194,9.7,194z"/>
	</g>
	<g>
		<defs>
			<path id="SVGID_3_" d="M-52.4,174.7c0,4.4-3.7,11-9,11h-620.8c-4.4,0-8-3.6-8-8v-418c0-4.4,3.6-7.9,8-7.9h620.8
				c4.4,0,8,3.6,8,7.9L-52.4,174.7z"/>
		</defs>
		<clipPath id="SVGID_4_">
			<use xlink:href="#SVGID_3_"  overflow="visible"/>
		</clipPath>
		<path clip-path="url(#SVGID_4_)" fill="#E9EDED" d="M8.8,190.4h-716.1c-0.9,0-1.6-0.7-1.6-1.6v-56.8c0-0.9,0.7-1.6,1.6-1.6H8.8
			c0.9,0,1.6,0.7,1.6,1.6v56.8C10.4,189.7,9.7,190.4,8.8,190.4z"/>
	</g>
	<path fill="#ABAFBB" d="M-78.9,109.3h-585.2c-0.9,0-1.6-0.7-1.6-1.6v-331.9c0-0.9,0.7-1.6,1.6-1.6h585.2c0.9,0,1.6,0.7,1.6,1.6
		v331.9C-77.2,108.5-78,109.3-78.9,109.3z"/>
	<g>
		<path fill="#BFC6C9" d="M-277.4,271.6c-2.8-1.9-21.1-10.2-23.3-16.9c-1.6-4.7-6-56.6-6.8-66.2c-0.1-0.9-0.8-1.5-1.6-1.5l-62.1,0.2
			l-62.1-0.2c-0.9,0-1.6,0.6-1.6,1.5c-0.8,9.6-5.2,61.5-6.8,66.2c-2.2,6.7-20.5,15-23.3,16.9c-0.9,0.6-0.6,1.8,0,2.8
			c0.3,0.5,0.8,0.7,1.4,0.7h184.8c0.5,0,1.1-0.3,1.4-0.7C-276.8,273.4-276.5,272.3-277.4,271.6z"/>
	</g>
	<path fill="#E9EDED" d="M-279.1,271.6h-183.7c-0.9,0-1.6,0.7-1.6,1.6v0.3c0,0.9,0.7,1.6,1.6,1.6h183.7c0.9,0,1.6-0.7,1.6-1.6v-0.3
		C-277.4,272.4-278.2,271.6-279.1,271.6z"/>
	<path fill="#E9EDED" d="M-433.7,190.9h125c0.8,0,1.6,0.6,1.6,1.5l6.1,60.6c0.1,1-0.7,1.8-1.6,1.8h-137.3c-1,0-1.7-0.8-1.6-1.8
		l6.2-60.6C-435.2,191.5-434.5,190.9-433.7,190.9z"/>
</g>
<path fill="#0E263A" d="M-357.2,154.2c-0.2-0.9-1-1.5-2-1.3c0,0,0,0,0,0c-0.6,0.1-1.2,0.2-1.8,0.2c-1.2,0-2-0.3-2.4-1
	c-0.4-0.7-0.6-1.5-0.6-2.6v-4.9c0-0.9,0.7-1.6,1.6-1.6h3.1c0.9,0,1.6-0.7,1.6-1.6v-1.1c0-0.9-0.7-1.6-1.6-1.6h-4.7h0v-2.1
	c0-1.2-1.2-2-2.3-1.5l-2.9,1.4l0,0v9.3c-0.5-0.6-1.1-1.2-1.6-1.8c-0.6-0.6-1.1-1.2-1.6-1.8c-0.5-0.6-1-1.2-1.5-1.7
	c-0.1-0.1-0.2-0.3-0.3-0.4c-0.5-0.6-1.3-0.7-1.9-0.4l-1.3,0.6c-1,0.5-1.3,1.8-0.5,2.6c0.1,0.1,0.2,0.2,0.3,0.3
	c0.9,0.9,1.8,1.9,2.8,2.9c0.6,0.6,0.6,1.6,0,2.3c-0.3,0.4-0.7,0.8-1.1,1.2c-0.8,0.9-1.5,1.8-2.2,2.8c-0.7,0.9-1.4,1.9-2,2.8
	c0,0,0,0.1-0.1,0.1c-0.7,1.1,0.1,2.5,1.4,2.5h2.3c0.6,0,1.1-0.3,1.4-0.8c0.3-0.4,0.5-0.8,0.8-1.3c0.5-0.7,1-1.5,1.5-2.2
	c0.5-0.7,1.1-1.5,1.7-2.2c0.6-0.7,1.2-1.3,1.8-1.7v0.2c0,0,0,0,0,0c0,1.2,0.1,2.3,0.3,3.3c0.2,1,0.6,1.8,1.2,2.5
	c0.6,0.7,1.3,1.2,2.3,1.6c0.4,0.2,0.9,0.3,1.5,0.4c0.6,0.1,1.3,0.2,2.1,0.2c1.1,0,2.1-0.1,2.9-0.3c0.2-0.1,0.5-0.1,0.7-0.2
	c0.8-0.2,1.3-1,1.2-1.9L-357.2,154.2z"/>
<rect x="-665.4" y="-240.8" fill="#767983" width="589" height="21"/>
<rect x="-634.4" y="-232.8" fill="#BABEBF" width="25.5" height="5"/>
<rect x="-665.6" y="-49.4" fill="#BABEBF" width="53.2" height="7.9"/>
<rect x="-612.2" y="-49.4" fill="#BABEBF" width="55.2" height="7.9"/>
<rect x="-602.5" y="-232.8" opacity="0.55" fill="#BABEBF" width="25.5" height="5"/>
<rect x="-500.9" y="-232.8" fill="#BABEBF" width="17.3" height="5"/>
<rect x="-475.7" y="-232.8" fill="#BABEBF" width="17.3" height="5"/>
<rect x="-450.8" y="-232.8" fill="#BABEBF" width="17.3" height="5"/>
<rect x="-426.7" y="-232.8" fill="#BABEBF" width="17.3" height="5"/>
<rect x="-459.5" y="-217.8" width="381.3" height="152"/>
<rect x="-665" y="-219.2" fill="#CCD0D6" width="85.3" height="166.7"/>
<rect x="-665.7" y="-63.8" fill="#767983" width="588.7" height="12.3"/>
<line fill="none" stroke="#767983" stroke-miterlimit="10" x1="-520.2" y1="-218.8" x2="-520.2" y2="-63.5"/>
<rect x="-613.5" y="-39.2" opacity="0.47" fill="#767983" width="537" height="61.2"/>
<rect x="-613.6" y="27.7" opacity="0.47" fill="#767983" width="536.3" height="71"/>
<rect x="-613.3" y="28.2" opacity="0.63" fill="#7FA0A0" width="535.2" height="16"/>
<rect x="-612.3" y="46.5" opacity="0.57" fill="#7FA0A0" width="535.2" height="16"/>
<rect x="-613" y="5.2" opacity="0.57" fill="#2CB4FF" width="535.5" height="16.7"/>
<rect x="-612.3" y="65.1" opacity="0.57" fill="#7FA0A0" width="535.2" height="16"/>
<g>
	<rect x="-662.3" y="10.2" fill="#767983" width="6.8" height="6.7"/>
	<g>
		<rect x="-647.3" y="11" fill="none" stroke="#767983" stroke-miterlimit="10" width="3.2" height="5.9"/>
		<rect x="-643" y="11" fill="none" stroke="#767983" stroke-miterlimit="10" width="1.6" height="5.9"/>
	</g>
	<g>
		<circle fill="#0E263A" cx="-628.7" cy="14.2" r="1.7"/>
		<g>
			<ellipse fill="none" stroke="#000000" stroke-miterlimit="10" cx="-628.7" cy="14.2" rx="4" ry="1.8"/>
		</g>
	</g>
	<line fill="none" stroke="#767983" stroke-width="0.5" stroke-miterlimit="10" x1="-664.3" y1="21.5" x2="-613.7" y2="21.5"/>
	<line fill="none" stroke="#767983" stroke-width="0.5" stroke-miterlimit="10" x1="-664.3" y1="6.2" x2="-613.7" y2="6.2"/>
</g>
<g>
	<rect x="-662.3" y="34" fill="#767983" width="6.8" height="6.7"/>
	<g>
		<rect x="-647.3" y="34.8" fill="none" stroke="#767983" stroke-miterlimit="10" width="3.2" height="5.9"/>
		<rect x="-643" y="34.8" fill="none" stroke="#767983" stroke-miterlimit="10" width="1.6" height="5.9"/>
	</g>
	<g>
		<circle fill="#0E263A" cx="-628.7" cy="38" r="1.7"/>
		<g>
			<ellipse fill="none" stroke="#000000" stroke-miterlimit="10" cx="-628.7" cy="38" rx="4" ry="1.8"/>
		</g>
	</g>
	<line fill="none" stroke="#767983" stroke-width="0.5" stroke-miterlimit="10" x1="-664.3" y1="45.3" x2="-613.7" y2="45.3"/>
	<line fill="none" stroke="#767983" stroke-width="0.5" stroke-miterlimit="10" x1="-664.3" y1="30" x2="-613.7" y2="30"/>
</g>
<g>
	<rect x="-662.3" y="51.1" fill="#767983" width="6.8" height="6.7"/>
	<g>
		<rect x="-647.3" y="51.9" fill="none" stroke="#767983" stroke-miterlimit="10" width="3.2" height="5.9"/>
		<rect x="-643" y="51.9" fill="none" stroke="#767983" stroke-miterlimit="10" width="1.6" height="5.9"/>
	</g>
	<g>
		<circle fill="#0E263A" cx="-628.7" cy="55" r="1.7"/>
		<g>
			<ellipse fill="none" stroke="#000000" stroke-miterlimit="10" cx="-628.7" cy="55" rx="4" ry="1.8"/>
		</g>
	</g>
	<line fill="none" stroke="#767983" stroke-width="0.5" stroke-miterlimit="10" x1="-664.3" y1="62.4" x2="-613.7" y2="62.4"/>
	<line fill="none" stroke="#767983" stroke-width="0.5" stroke-miterlimit="10" x1="-664.3" y1="47" x2="-613.7" y2="47"/>
</g>
<g>
	<rect x="-662.3" y="67.4" fill="#767983" width="6.8" height="6.7"/>
	<g>
		<rect x="-647.3" y="68.2" fill="none" stroke="#767983" stroke-miterlimit="10" width="3.2" height="5.9"/>
		<rect x="-643" y="68.2" fill="none" stroke="#767983" stroke-miterlimit="10" width="1.6" height="5.9"/>
	</g>
	<g>
		<circle fill="#0E263A" cx="-628.7" cy="71.4" r="1.7"/>
		<g>
			<ellipse fill="none" stroke="#000000" stroke-miterlimit="10" cx="-628.7" cy="71.4" rx="4" ry="1.8"/>
		</g>
	</g>
	<line fill="none" stroke="#767983" stroke-width="0.5" stroke-miterlimit="10" x1="-664.3" y1="78.7" x2="-613.7" y2="78.7"/>
	<line fill="none" stroke="#767983" stroke-width="0.5" stroke-miterlimit="10" x1="-664.3" y1="63.4" x2="-613.7" y2="63.4"/>
</g>
<g>
	<polygon fill="#0E263A" points="-593.7,14.4 -595.4,14.3 -595.6,13.5 -595.8,15.3 -596,13.8 -596.2,14.6 -596.6,13 -597,14.1
		-597.4,12 -597.8,14.4 -598,14.4 -598.5,12.5 -598.9,13.9 -599.2,12.2 -599.6,14.6 -600,10.8 -600.5,13.7 -601.1,9.9 -601.8,14.2
		-602.6,6.4 -603,12.5 -603.3,10.2 -603.7,12.7 -604.2,8.6 -604.8,14.3 -605.2,14.3 -605.8,10.5 -606.3,15 -607.2,11.5 -607.9,15.2
		-608.3,14.3 -609.2,14.3 -609.5,12.8 -609.9,14.8 -610.4,13.9 -610.6,14.4 -611.8,14.4 -610.6,14.5 -610.4,14.1 -609.9,15.4
		-609.5,13.9 -609.2,14.4 -608.4,14.4 -607.8,16 -607.1,13.1 -606.3,15.9 -605.8,12.7 -605.4,14.5 -604.6,14.5 -604.2,12
		-603.7,15.6 -603.3,13.3 -603,16.7 -602.6,13.4 -601.8,20.3 -601.1,12.2 -600.5,15.3 -600,12.4 -599.6,15.9 -599.2,13.3
		-598.9,14.9 -598.5,13.3 -598.2,14.4 -597.7,14.4 -597.3,13 -597,15.2 -596.6,13.6 -596.2,15 -596,14.5 -595.8,15.5 -595.6,14.4
		"/>
</g>
<g>
	<polygon fill="#0E263A" points="-588.9,14.7 -586.4,14.6 -586.2,14.1 -585.8,15.1 -585.5,14.3 -585.2,14.7 -584.5,13.8 -584,14.5
		-583.4,13.2 -582.8,14.6 -582.4,14.6 -581.7,13.5 -581.1,14.4 -580.7,13.3 -580.1,14.8 -579.4,12.5 -578.6,14.2 -577.7,12
		-576.6,14.5 -575.4,9.9 -574.8,13.5 -574.3,12.2 -573.8,13.7 -573,11.2 -572.1,14.6 -571.4,14.6 -570.5,12.3 -569.7,15
		-568.4,12.9 -567.4,15.1 -566.8,14.6 -565.4,14.6 -564.9,13.7 -564.3,14.9 -563.5,14.3 -563.2,14.6 -561.4,14.6 -563.2,14.7
		-563.5,14.5 -564.3,15.2 -564.9,14.3 -565.4,14.7 -566.6,14.7 -567.5,15.6 -568.5,13.9 -569.8,15.5 -570.6,13.6 -571.2,14.7
		-572.3,14.7 -573,13.2 -573.8,15.4 -574.3,14 -574.8,16 -575.5,14.1 -576.6,18.2 -577.7,13.3 -578.6,15.2 -579.4,13.4 -580,15.5
		-580.6,14 -581.1,14.9 -581.7,14 -582.1,14.7 -582.9,14.7 -583.5,13.8 -583.9,15.1 -584.5,14.1 -585.2,15 -585.4,14.7 -585.8,15.3
		-586.2,14.7 	"/>
</g>
<rect x="-460" y="-71.8" fill="#CCD0D6" width="382.7" height="6"/>
<rect x="-664.7" y="-71.7" fill="#E9EDED" width="203.7" height="6"/>
<rect x="-466.7" y="-219" fill="#E9EDED" width="6" height="146.2"/>
<line fill="none" stroke="#231F20" stroke-width="0.5" stroke-miterlimit="10" x1="-610.8" y1="14.7" x2="-397.8" y2="14.7"/>
<g>
	<polygon fill="#E9EDED" points="460.5,-56.1 488.6,-65.6 492.9,-55.4 467.5,-44 	"/>
	<g>

			<ellipse transform="matrix(0.9802 -0.1982 0.1982 0.9802 1.256 52.0044)" fill="#121919" cx="260.4" cy="19.7" rx="6.3" ry="13.6"/>

			<ellipse transform="matrix(0.9802 -0.1982 0.1982 0.9802 0.9463 51.1155)" fill="#3B382F" cx="255.8" cy="20.8" rx="5.3" ry="11.4"/>
		<polygon fill="#121919" points="470,-41.2 264.3,32.7 258.4,6 461.4,-60.2 		"/>

			<ellipse transform="matrix(0.9478 -0.3189 0.3189 0.9478 40.6793 146.3489)" fill="#121919" cx="467.2" cy="-51" rx="6.8" ry="11.5"/>
	</g>
	<path fill="#121919" d="M488.5-79.2c0,0,14.8-9.5,18.1-9.2s15.2,25.4,15.2,25.4s0.2,6.6-2.1,7.8c-1.6,0.8-21,11.2-21,11.2
		s-0.6-0.9-1.7-3.4c-2.3-5.5-12.4-25.7-12.4-25.7L488.5-79.2z"/>
	<polygon fill="#121919" points="488.9,-68 482.4,-63.5 487.7,-53 494.7,-52.6 495.2,-57.5 	"/>

		<ellipse transform="matrix(0.9538 0.3003 -0.3003 0.9538 7.3238 -154.9418)" fill="#767983" cx="507.7" cy="-53.6" rx="4.9" ry="6.6"/>

		<ellipse transform="matrix(0.9538 0.3003 -0.3003 0.9538 7.5567 -155.2662)" fill="#121919" cx="508.9" cy="-53" rx="4.9" ry="6.6"/>
</g>
<g>
	<g>
		<path fill-rule="evenodd" clip-rule="evenodd" fill="#282827" d="M209.5,163.9L209.5,163.9L209.5,163.9L209.5,163.9
			c-2.6,0.2-4.9-1-7.1-2.4l-0.1,0l-0.1-0.1l-6.3-4.2l0.3-5.3l10.4,5.1l3.2,1.6l-0.2,3.4c0.8,0.2,1.7,0.3,2.8,0.4L209.5,163.9
			L209.5,163.9z"/>
		<path fill-rule="evenodd" clip-rule="evenodd" fill="#4C4C4C" d="M209.8,158.6c-2.7,0.3-5-1.1-7.3-2.5l-6.3-4.2l2.9-1.5l6.8,4.5
			c2.4,1.6,3.8,1.9,6.7,2.2L209.8,158.6L209.8,158.6z"/>
		<polygon fill-rule="evenodd" clip-rule="evenodd" fill="#282827" points="209.8,158.6 209.5,163.9 212.5,162.5 212.8,157.1
			209.8,158.6 		"/>
		<polygon fill-rule="evenodd" clip-rule="evenodd" fill="#282827" points="243.6,215.1 156,157.1 179.3,145.5 266.8,203.5
			243.6,215.1 		"/>
		<polygon fill-rule="evenodd" clip-rule="evenodd" points="244.3,215.4 240.6,276.1 153.1,218.2 156.8,157.4 244.3,215.4 		"/>
		<polygon fill-rule="evenodd" clip-rule="evenodd" fill="#4C4C4C" points="243.6,215.1 239.8,275.8 263.1,264.2 266.8,203.5
			243.6,215.1 		"/>
		<polygon fill-rule="evenodd" clip-rule="evenodd" points="197.2,204.7 193.5,265.4 164.5,246.2 168.3,185.5 197.2,204.7 		"/>
		<polygon fill-rule="evenodd" clip-rule="evenodd" fill="#3F3F3F" points="197.2,204.7 168.3,185.5 175.4,169.9 220.2,199.6
			197.2,204.7 		"/>
		<polygon fill-rule="evenodd" clip-rule="evenodd" fill="#4C4C4C" points="199.8,186 182.5,174.7 209.9,165.8 227.1,177.2
			199.8,186 		"/>
		<polygon fill-rule="evenodd" clip-rule="evenodd" fill="#2B2B2B" points="197.2,204.7 168.3,185.5 182.5,174.7 199.8,186.1
			197.2,204.7 		"/>
		<polygon fill-rule="evenodd" clip-rule="evenodd" points="220.2,199.6 216.5,260.3 193.5,265.4 197.2,204.7 220.2,199.6 		"/>
		<polygon fill-rule="evenodd" clip-rule="evenodd" fill="#686868" points="199.8,186 227.2,177.2 197.2,204.7 199.8,186 		"/>
		<path fill-rule="evenodd" clip-rule="evenodd" d="M170.1,203.1L170.1,203.1L170.1,203.1L170.1,203.1L170.1,203.1L170.1,203.1
			L170.1,203.1l-12.8,6.4l19.5,36.6l13.3-6.6c2.5-1.3,4.2-4.2,4.4-8.5c0.3-4.5-1.1-9.7-3.5-14.4c-2.4-4.7-6-8.9-10-11.6
			c-4-2.7-7.8-3.2-10.6-2C170.3,203,170.2,203.1,170.1,203.1L170.1,203.1z"/>
		<path fill-rule="evenodd" clip-rule="evenodd" fill="#282827" d="M154.3,198.6L154.3,198.6L154.3,198.6L154.3,198.6L154.3,198.6
			L154.3,198.6L154.3,198.6L131.4,210l30.8,57.7l23.7-11.8c4-2.1,6.6-6.7,7-13.4c0.4-7.1-1.7-15.3-5.6-22.7
			c-3.9-7.4-9.4-14.1-15.8-18.3c-6.3-4.2-12.2-5.1-16.7-3.2C154.6,198.4,154.4,198.5,154.3,198.6L154.3,198.6z"/>
		<path fill-rule="evenodd" clip-rule="evenodd" d="M148.4,213c-6.3-4.2-12.2-5.1-16.7-3.2c-4.4,1.9-7.4,6.7-7.8,13.8
			c-0.4,7.1,1.7,15.3,5.6,22.7c3.9,7.4,9.4,14.1,15.7,18.3c6.3,4.2,12.2,5.1,16.7,3.2c4.4-1.9,7.4-6.7,7.8-13.8
			c0.4-7.1-1.7-15.3-5.6-22.7C160.3,223.9,154.7,217.2,148.4,213L148.4,213z"/>
		<path fill-rule="evenodd" clip-rule="evenodd" fill="#4C4C4C" d="M148,219c-4.9-3.2-9.4-3.9-12.8-2.4c-3.4,1.5-5.7,5.1-6,10.6
			c-0.3,5.5,1.3,11.7,4.3,17.4c3,5.7,7.2,10.8,12.1,14c4.9,3.2,9.4,3.9,12.8,2.5c3.4-1.5,5.7-5.1,6-10.6c0.3-5.5-1.3-11.7-4.3-17.4
			C157.1,227.4,152.9,222.3,148,219L148,219z"/>
		<polygon fill-rule="evenodd" clip-rule="evenodd" fill="#4C4C4C" points="213.9,176.6 202,168.7 213.9,162.8 225.8,170.7
			213.9,176.6 		"/>
		<polygon fill-rule="evenodd" clip-rule="evenodd" fill="#4C4C4C" points="213.9,176.6 213.7,179.9 225.4,176.1 225.8,170.7
			213.9,176.6 		"/>
		<polygon fill-rule="evenodd" clip-rule="evenodd" fill="#282827" points="213.9,176.6 213.7,179.9 201.8,172 202,168.7
			213.9,176.6 		"/>
		<polygon fill-rule="evenodd" clip-rule="evenodd" fill="#BECDC7" points="203,166.3 202.8,169.3 214.7,163.4 214.9,160.4
			203,166.3 		"/>
		<polygon fill-rule="evenodd" clip-rule="evenodd" fill="#2E4359" points="203,166.4 202.1,165.8 202,168.7 202.8,169.3 203,166.4
					"/>
		<polygon fill-rule="evenodd" clip-rule="evenodd" fill="#2E4359" points="204.6,167.4 202.1,165.8 202.1,166.9 204.6,168.6
			204.6,167.4 		"/>
		<polygon fill-rule="evenodd" clip-rule="evenodd" fill="#4C4C4C" points="202.1,165.8 214.1,159.8 216.5,161.5 204.6,167.4
			202.1,165.8 		"/>
		<polygon fill-rule="evenodd" clip-rule="evenodd" fill="#282827" points="204.6,167.4 204.6,168.6 216.5,162.6 216.5,161.5
			204.6,167.4 		"/>
		<polygon fill-rule="evenodd" clip-rule="evenodd" fill="#282827" points="214,173.7 213.9,176.6 225.8,170.7 226,167.7 214,173.7
					"/>
		<polygon fill-rule="evenodd" clip-rule="evenodd" fill="#2E4359" points="214,173.7 213.2,173.1 213,176.1 213.9,176.6 214,173.7
					"/>
		<polygon fill-rule="evenodd" clip-rule="evenodd" fill="#2E4359" points="214,173.7 211.6,172 211.5,173.2 214,174.8 214,173.7
			"/>
		<path fill-rule="evenodd" clip-rule="evenodd" fill="#2E4359" d="M213.1,169.3c0.2,0.2,0.3,0.4,0.3,0.6c0,0.2-0.1,0.4-0.4,0.6
			c-0.3,0.2-0.6,0.2-0.9,0.2c-0.3,0-0.6-0.1-0.9-0.3c-0.2-0.2-0.3-0.4-0.3-0.6c0-0.2,0.1-0.4,0.4-0.6c0.3-0.1,0.6-0.2,0.9-0.2
			C212.6,169,212.9,169.1,213.1,169.3L213.1,169.3z"/>
		<polygon fill-rule="evenodd" clip-rule="evenodd" fill="#4C4C4C" points="211.6,172 223.5,166.1 226,167.7 214,173.7 211.6,172
			"/>
		<path fill-rule="evenodd" clip-rule="evenodd" fill="#282827" d="M254.3,201.7c0,0.1,0,0.2,0,0.2c-0.1,1.9-1.3,3.8-3.6,5.2
			c-2.3,1.3-5.2,1.9-8.1,1.7c-2.9-0.2-5.7-1.1-7.8-2.7c-2.1-1.6-3.1-3.6-3-5.5l0,0l0,0l0.5-7.7l22.4,1.4L254.3,201.7L254.3,201.7z"
			/>
		<path fill-rule="evenodd" clip-rule="evenodd" fill="#4C4C4C" d="M251.8,188.6c2.1,1.6,3.1,3.6,3,5.6c-0.1,1.9-1.3,3.8-3.6,5.2
			c-2.3,1.3-5.2,1.9-8.1,1.7c-2.9-0.2-5.7-1.1-7.8-2.7c-2.1-1.6-3.1-3.6-3-5.6c0.1-1.9,1.3-3.8,3.6-5.2c2.3-1.3,5.2-1.9,8.1-1.7
			C246.9,186.1,249.7,187,251.8,188.6L251.8,188.6z"/>
		<polygon fill-rule="evenodd" clip-rule="evenodd" fill="#2E4359" points="204.4,159.4 204.3,160.3 190.2,163.7 190.2,162.8
			204.4,159.4 		"/>
		<path fill-rule="evenodd" clip-rule="evenodd" fill="#282827" d="M246.6,191.7c0.8,0.6,1.1,1.3,1.1,2c0,0.7-0.5,1.4-1.3,1.9
			c-0.8,0.5-1.9,0.7-3,0.6c-1.1-0.1-2.1-0.4-2.9-1c-0.8-0.6-1.1-1.3-1.1-2s0.5-1.4,1.3-1.9c0.8-0.5,1.9-0.7,3-0.6
			C244.8,190.8,245.8,191.1,246.6,191.7L246.6,191.7z"/>
		<polygon fill-rule="evenodd" clip-rule="evenodd" fill="#4C4C4C" points="191.4,155.6 200.6,156.9 204.4,159.4 190.2,162.8
			191.4,155.6 		"/>
		<path fill-rule="evenodd" clip-rule="evenodd" fill="#282827" d="M171.1,153.8l5.4,0.3c1.8-0.6,3.8-0.8,5.8-0.7
			c2,0.1,4,0.6,5.7,1.4l5.4,0.3l-0.4,6.3c0,0.1,0,0.2,0,0.2c-0.1,1.9-1.3,3.8-3.6,5.2c-2.3,1.3-5.2,1.9-8.1,1.7
			c-2.9-0.2-5.7-1.1-7.8-2.7c-2.1-1.6-3.1-3.6-3-5.5l0,0L171.1,153.8L171.1,153.8z"/>
		<path fill-rule="evenodd" clip-rule="evenodd" fill="#4C4C4C" d="M190.6,149.6c2.1,1.6,3.1,3.6,3,5.6c-0.1,1.9-1.3,3.8-3.6,5.2
			c-2.3,1.3-5.2,1.9-8.1,1.7c-2.9-0.2-5.7-1.1-7.8-2.7c-2.1-1.6-3.1-3.6-3-5.6c0.1-1.9,1.3-3.8,3.6-5.2c2.3-1.3,5.2-1.9,8.1-1.7
			C185.7,147.1,188.5,148,190.6,149.6L190.6,149.6z"/>
		<path fill-rule="evenodd" clip-rule="evenodd" fill="#2E4359" d="M185.7,152.2c0.8,0.6,1.2,1.5,1.2,2.2c0,0.8-0.5,1.5-1.5,2.1
			c-0.9,0.5-2.1,0.8-3.3,0.7c-1.2-0.1-2.3-0.4-3.1-1.1c-0.8-0.7-1.2-1.5-1.2-2.2c0-0.8,0.5-1.5,1.5-2.1c0.9-0.5,2.1-0.8,3.3-0.7
			C183.7,151.1,184.9,151.5,185.7,152.2L185.7,152.2z"/>
		<path fill-rule="evenodd" clip-rule="evenodd" fill="#282827" d="M184.8,152.7c0.6,0.5,0.9,1.1,0.9,1.6c0,0.6-0.4,1.1-1.1,1.5
			c-0.7,0.4-1.5,0.6-2.3,0.5c-0.8-0.1-1.7-0.3-2.3-0.8c-0.6-0.5-0.9-1.1-0.9-1.6c0-0.6,0.4-1.1,1.1-1.5c0.7-0.4,1.5-0.6,2.3-0.5
			C183.3,152,184.2,152.2,184.8,152.7L184.8,152.7z"/>
		<g>
			<path fill-rule="evenodd" clip-rule="evenodd" fill="#282827" d="M228,191.3c0.9,0.7,1.4,1.6,1.3,2.5c-0.1,0.9-0.6,1.7-1.6,2.3
				c-1,0.6-2.3,0.8-3.6,0.8c-1.3-0.1-2.5-0.5-3.5-1.2c-0.9-0.7-1.4-1.6-1.3-2.5c0.1-0.9,0.6-1.7,1.6-2.3c1-0.6,2.3-0.8,3.6-0.8
				C225.9,190.2,227.1,190.6,228,191.3L228,191.3z"/>
			<polygon fill-rule="evenodd" clip-rule="evenodd" fill="#2E4359" points="219.6,189.7 229.6,190.4 229.4,193.8 219.4,193.2
				219.6,189.7 			"/>
			<path fill-rule="evenodd" clip-rule="evenodd" fill="#4C4C4C" d="M228.3,187.9c0.9,0.7,1.4,1.6,1.3,2.5c-0.1,0.9-0.6,1.7-1.6,2.3
				c-1,0.6-2.3,0.9-3.6,0.8c-1.3-0.1-2.5-0.5-3.5-1.2c-0.9-0.7-1.4-1.6-1.3-2.5c0.1-0.9,0.6-1.7,1.6-2.3c1-0.6,2.3-0.8,3.6-0.8
				C226.1,186.8,227.3,187.2,228.3,187.9L228.3,187.9z"/>
		</g>
		<polygon fill-rule="evenodd" clip-rule="evenodd" fill="#4C4C4C" points="259,259.5 264.8,256.6 267.4,213.6 261.6,216.5
			259,259.5 		"/>
		<polygon fill-rule="evenodd" clip-rule="evenodd" fill="#686868" points="260.5,215.7 261.6,216.5 267.4,213.6 266.2,212.8
			260.5,215.7 		"/>
		<polygon fill-rule="evenodd" clip-rule="evenodd" fill="#282827" points="257.8,258.7 259,259.5 261.6,216.5 260.5,215.7
			257.8,258.7 		"/>
		<path fill-rule="evenodd" clip-rule="evenodd" d="M154.3,198.6L154.3,198.6L154.3,198.6L154.3,198.6L154.3,198.6L154.3,198.6
			L154.3,198.6l-7.8,3.9c0.3-0.2,0.4-0.8,0.7-0.9c4.4-1.7,10.5-0.2,16.6,3.8c6.3,4.2,11.9,10.9,15.8,18.3c3.9,7.4,6,15.6,5.6,22.7
			c-0.4,6.6-3,11.2-7,13.3l-0.7,0.3l-0.2,0.1l0,0l-4.4,2.2l-0.7,0.3l-2,1c4-2.1,6.6-6.7,7-13.4c0.4-7.1-1.7-15.3-5.6-22.7
			c-3.9-7.4-9.4-14.1-15.8-18.3c-6.3-4.2-12.2-5.1-16.7-3.2c-0.2,0.1-0.3,0.1-0.5,0.2l5.5-2.8l-3,1.5l0,0l0,0l0,0l-2.5,1.3l0,0
			l-4.7,2.3l0,0c0.1-0.1,0.2-0.1,0.4-0.2c4.4-1.9,10.3-1,16.7,3.2c6.3,4.2,11.9,10.9,15.8,18.3c3.9,7.4,6,15.6,5.6,22.7
			c-0.4,6.7-3.1,11.3-7.1,13.4l20.5-10.2c4-2.1,6.6-6.7,7-13.4c0.4-7.1-1.7-15.3-5.6-22.7c-3.9-7.4-9.4-14.1-15.8-18.3
			c-6.3-4.2-12.2-5.1-16.7-3.2C154.6,198.4,154.4,198.5,154.3,198.6L154.3,198.6z"/>
	</g>

		<ellipse transform="matrix(0.9994 -3.526586e-02 3.526586e-02 0.9994 -7.9913 5.0531)" fill-rule="evenodd" clip-rule="evenodd" fill="#FFFFFF" cx="139.2" cy="229.1" rx="3" ry="3.4"/>
</g>
<g>
	<rect x="365.1" y="195.6" fill="#121919" width="60.4" height="20.1"/>
	<polygon fill="#E9EDED" points="365.1,195.6 405.2,168.2 453.7,168.5 425.5,195.6 	"/>
	<polygon fill="#121919" points="453.7,168.5 453.7,188 425.5,215.8 425.5,195.6 	"/>
	<ellipse fill="#121919" cx="410.6" cy="164.9" rx="13.8" ry="4.6"/>
	<ellipse fill="#121919" cx="410.6" cy="172.8" rx="13.8" ry="4.6"/>
	<rect x="397.9" y="167.2" fill="#121919" width="25.3" height="7.2"/>
	<ellipse opacity="0.37" fill="#747A7C" cx="410.6" cy="164" rx="9.2" ry="2.1"/>
	<polygon fill="#747A7C" points="387,184.5 376.5,191.2 402.6,191.3 411.1,184.9 	"/>

		<ellipse transform="matrix(0.9995 -3.237792e-02 3.237792e-02 0.9995 -5.8734 13.6899)" fill="#CCCCCC" stroke="#D8D8D8" stroke-miterlimit="10" cx="419.8" cy="188.2" rx="6.4" ry="2.4"/>
</g>
<g>
	<g>
		<path fill-rule="evenodd" clip-rule="evenodd" d="M151.1-165.1l-13.9,58.5l-82.2-19.6c-0.1,0-0.2,0-0.2-0.1
			c-5-1.2-9.4-5.3-11.9-11.9c-2.5-6.6-2.6-14.6-0.9-22.1c1.8-7.5,5.5-14.5,10.7-19.3c5.2-4.8,11-6.4,16-5.2
			C96.1-178.2,123.6-171.7,151.1-165.1L151.1-165.1z"/>
		<path fill-rule="evenodd" clip-rule="evenodd" fill="#232323" d="M163-153.3c-2.5-6.6-6.9-10.7-11.9-11.9
			c-5.1-1.2-10.8,0.4-16,5.2c-5.2,4.8-8.9,11.8-10.7,19.3c-1.8,7.5-1.6,15.4,0.9,22.1c2.5,6.6,6.9,10.7,11.9,11.9
			c5.1,1.2,10.8-0.5,16-5.2c5.2-4.8,8.9-11.8,10.7-19.3C165.6-138.7,165.5-146.6,163-153.3L163-153.3z"/>
		<path fill-rule="evenodd" clip-rule="evenodd" fill="#232323" d="M161.6-152c-2.3-6.1-6.4-9.9-11.1-11c-4.7-1.1-10,0.4-14.8,4.8
			c-4.8,4.4-8.3,11-9.9,17.9c-1.7,6.9-1.5,14.3,0.8,20.4c2.3,6.1,6.4,9.9,11.1,11c4.7,1.1,10-0.4,14.8-4.9
			c4.8-4.4,8.3-10.9,9.9-17.9C164-138.5,163.9-145.8,161.6-152L161.6-152z"/>
		<path fill-rule="evenodd" clip-rule="evenodd" fill="#4C4C4C" d="M155.6-149.6c-1.9-5-5.2-8-9-8.9c-3.8-0.9-8.1,0.3-12,3.9
			c-3.9,3.6-6.7,8.9-8.1,14.5c-1.3,5.6-1.2,11.6,0.6,16.6c1.9,5,5.2,8,9,9c3.8,0.9,8.1-0.3,12.1-3.9c3.9-3.6,6.7-8.9,8.1-14.5
			C157.5-138.7,157.4-144.6,155.6-149.6L155.6-149.6z"/>
		<path fill-rule="evenodd" clip-rule="evenodd" fill="#232323" d="M115.9-173.5c-5-1.1-10.6,0.6-15.8,5.3
			c-5.2,4.8-8.9,11.8-10.7,19.3c-1.8,7.5-1.6,15.4,0.9,22.1c2.5,6.5,6.7,10.6,11.7,11.8l-36.2-8.6c-0.1,0-0.2,0-0.3-0.1
			c-5-1.2-9.4-5.3-11.9-11.9c-2.5-6.6-2.6-14.6-0.9-22.1c1.8-7.5,5.5-14.5,10.7-19.3c5.2-4.8,10.9-6.4,16-5.2
			C91.6-179.3,103.7-176.4,115.9-173.5L115.9-173.5z"/>
		<path fill-rule="evenodd" clip-rule="evenodd" d="M105.5-174.5c-0.1,0-0.3,0.1-0.4,0.1L72.8-182c0.1-0.1,0.3-0.1,0.4-0.1
			L105.5-174.5L105.5-174.5z M100.9-172.2c-0.1,0.1-0.2,0.2-0.3,0.3l-32.2-7.7c0.1-0.1,0.2-0.2,0.3-0.3L100.9-172.2L100.9-172.2z
			 M97.8-169.6c-0.1,0.1-0.2,0.2-0.3,0.3l-32.2-7.7c0.1-0.1,0.2-0.2,0.3-0.3L97.8-169.6L97.8-169.6z M95.3-166.8
			c-0.1,0.1-0.2,0.3-0.3,0.4L62.7-174c0.1-0.1,0.2-0.3,0.3-0.4L95.3-166.8L95.3-166.8z M93.3-163.9c-0.1,0.2-0.2,0.4-0.3,0.5
			L60.7-171c0.1-0.2,0.2-0.4,0.3-0.5L93.3-163.9L93.3-163.9z M91.6-160.9c-0.1,0.2-0.2,0.4-0.3,0.6L59-168c0.1-0.2,0.2-0.4,0.3-0.6
			L91.6-160.9L91.6-160.9z M90.2-157.9c-0.1,0.2-0.2,0.5-0.3,0.7l-32.2-7.7c0.1-0.2,0.2-0.5,0.3-0.7L90.2-157.9L90.2-157.9z
			 M89-154.8c-0.1,0.3-0.2,0.5-0.3,0.8l-32.2-7.7c0.1-0.3,0.2-0.5,0.3-0.8L89-154.8L89-154.8z M88-151.7c-0.1,0.3-0.2,0.6-0.2,0.9
			l-32.2-7.7c0.1-0.3,0.2-0.6,0.2-0.9L88-151.7L88-151.7z M87.1-148c-0.1,0.3-0.1,0.6-0.2,0.9l-32.2-7.7c0.1-0.3,0.1-0.6,0.2-0.9
			L87.1-148L87.1-148z M86.5-144.8c0,0.3-0.1,0.6-0.1,0.9l-32.2-7.7c0-0.3,0.1-0.6,0.1-0.9L86.5-144.8L86.5-144.8z M86.2-141.4
			c0,0.3,0,0.5,0,0.8l-32.2-7.7c0-0.3,0-0.5,0-0.8L86.2-141.4L86.2-141.4z M86.1-138.1c0,0.2,0,0.5,0,0.7l-32.3-7.7
			c0-0.2,0-0.5,0-0.7L86.1-138.1L86.1-138.1z M86.2-134.7c0,0.2,0,0.4,0.1,0.6L54-141.7c0-0.2,0-0.4-0.1-0.6L86.2-134.7L86.2-134.7z
			 M86.7-131.2c0,0.2,0.1,0.4,0.1,0.5l-32.2-7.7c0-0.2-0.1-0.4-0.1-0.5L86.7-131.2L86.7-131.2z M87.5-127.6c0,0.2,0.1,0.3,0.1,0.5
			l-32.2-7.7c0-0.2-0.1-0.3-0.1-0.5L87.5-127.6L87.5-127.6z M88.9-123.8c0.1,0.1,0.1,0.3,0.2,0.4l-32.2-7.7
			c-0.1-0.1-0.1-0.2-0.2-0.4L88.9-123.8L88.9-123.8z M91.5-119.8c0.1,0.1,0.2,0.2,0.3,0.3l-32.2-7.7c-0.1-0.1-0.2-0.2-0.3-0.3
			L91.5-119.8L91.5-119.8z"/>
		<path fill-rule="evenodd" clip-rule="evenodd" fill="#232323" d="M126.5-109.2l-4.1-1c-0.1,0-0.2,0-0.2-0.1
			c-5-1.2-9.4-5.3-11.9-11.9c-2.5-6.6-2.6-14.6-0.9-22.1c1.8-7.5,5.5-14.5,10.7-19.3c5.2-4.8,10.9-6.4,16-5.2l4.6,1.1
			c-5-1.2-10.8,0.5-16,5.2c-5.2,4.8-8.9,11.8-10.7,19.3c-1.8,7.5-1.6,15.4,0.9,22.1C117.3-114.5,121.6-110.5,126.5-109.2
			L126.5-109.2z"/>
	</g>

		<ellipse transform="matrix(-0.9128 -0.4083 0.4083 -0.9128 334.1423 -185.3865)" fill-rule="evenodd" clip-rule="evenodd" fill="#FFFFFF" cx="147.3" cy="-128.4" rx="3" ry="3.4"/>
</g>
<g>
	<g>
		<path fill="#E9EDED" d="M65,4.4C31,4.4,3.5,17.1,3.5,32.7S31,60.9,65,60.9c34,0,61.5-12.6,61.5-28.2S99,4.4,65,4.4z M66.5,35.4
			c-8.5,0-15.5-3.5-15.5-7.9s6.9-7.9,15.5-7.9S82,23.1,82,27.4S75,35.4,66.5,35.4z"/>
	</g>
	<path opacity="0.42" fill="#FFFFFF" d="M73,35.9l14,23c0,0,7.5-0.5,10-1.5s7.5-3.5,7.5-3.5l-27-21L73,35.9z"/>
	<path opacity="0.42" fill="#FFFFFF" d="M65.3,19.9L60.3,4.2c-0.1,0.1-4.2,1-7,1c-2,0-8.8,1.1-8.8,1.1l17.1,14.4L65.3,19.9z"/>
</g>
</svg>
