<?xml version="1.0" encoding="utf-8"?>
<!-- Generator: Adobe Illustrator 18.1.0, SVG Export Plug-In . SVG Version: 6.00 Build 0)  -->
<!DOCTYPE svg PUBLIC "-//W3C//DTD SVG 1.1//EN" "http://www.w3.org/Graphics/SVG/1.1/DTD/svg11.dtd">
<svg version="1.1" id="Calque_1" xmlns="http://www.w3.org/2000/svg" xmlns:xlink="http://www.w3.org/1999/xlink" x="0px" y="0px"
	 viewBox="-69 -14 638 528" enable-background="new -69 -14 638 528" xml:space="preserve">
<rect x="510" y="14.5" fill="#BABEBF" width="28.6" height="2.7"/>
<g>
	<path fill="#0E263A" d="M568,412.5c0,4.4-3.6,7.9-8,7.9H-59.6c-4.4,0-8-3.6-8-7.9V-3.6c0-4.4,3.6-7.9,8-7.9h619.7
		c4.4,0,8,3.6,8,7.9V412.5z"/>
	<g>
		<g>
			<path id="SVGID_1_" fill="#BFC6C9" d="M568.5,417.8c0,4.4-3.6,8-8,8H-58.6c-4.4,0-8-3.6-8-8v-27.9c0-4.3,597.8-3.2,633.4-3.1
				c0.9,0,1.6,0.7,1.6,1.6L568.5,417.8L568.5,417.8z"/>
		</g>
		<g>
			<defs>
				<path id="SVGID_2_" d="M568.5,417.8c0,4.4-3.6,8-8,8H-58.6c-4.4,0-8-3.6-8-8v-27.9c0-4.3,597.8-3.2,633.4-3.1
					c0.9,0,1.6,0.7,1.6,1.6L568.5,417.8L568.5,417.8z"/>
			</defs>
			<clipPath id="SVGID_3_">
				<use xlink:href="#SVGID_2_"  overflow="visible"/>
			</clipPath>
			<path clip-path="url(#SVGID_3_)" fill="#BFC6C9" d="M630.5,430.4H-83.7c-0.9,0-1.6-0.7-1.6-1.6v-56.7c0-0.9,0.7-1.6,1.6-1.6
				h714.2c0.9,0,1.6,0.7,1.6,1.6v56.7C632.1,429.7,631.4,430.4,630.5,430.4z"/>
		</g>
	</g>
	<g>
		<g>
			<defs>
				<path id="SVGID_4_" d="M568.5,411.1c0,4.4-3.7,11-9,11H-59.6c-4.4,0-8-3.6-8-8V-2.8c0-4.4,3.6-7.9,8-7.9h619.2
					c4.4,0,8,3.6,8,7.9L568.5,411.1z"/>
			</defs>
			<clipPath id="SVGID_5_">
				<use xlink:href="#SVGID_4_"  overflow="visible"/>
			</clipPath>
			<path clip-path="url(#SVGID_5_)" fill="#E9EDED" d="M629.5,426.8H-84.6c-0.9,0-1.6-0.7-1.6-1.6v-56.7c0-0.9,0.7-1.6,1.6-1.6
				h714.2c0.9,0,1.6,0.7,1.6,1.6v56.7C631.2,426.1,630.4,426.8,629.5,426.8z"/>
		</g>
	</g>
	<path fill="#ABAFBB" d="M542.1,345.9H-41.6c-0.9,0-1.6-0.7-1.6-1.6V13.1c0-0.9,0.7-1.6,1.6-1.6h583.7c0.9,0,1.6,0.7,1.6,1.6v331
		C543.7,345.2,543,345.9,542.1,345.9z"/>
	<g>
		<path fill="#BFC6C9" d="M344,507.8c-2.8-1.9-21-10.2-23.2-16.9c-1.6-4.7-6-56.5-6.8-66c-0.1-0.9-0.8-1.5-1.6-1.5l-61.9,0.2
			l-61.9-0.2c-0.9,0-1.6,0.6-1.6,1.5c-0.8,9.6-5.2,61.3-6.8,66c-2.2,6.7-20.4,15-23.2,16.9c-0.9,0.6-0.6,1.8,0,2.8
			c0.3,0.5,0.8,0.7,1.4,0.7h184.3c0.5,0,1.1-0.3,1.4-0.7C344.7,509.5,345,508.4,344,507.8z"/>
	</g>
	<path fill="#E9EDED" d="M342.4,507.8H159.2c-0.9,0-1.6,0.7-1.6,1.6v0.3c0,0.9,0.7,1.6,1.6,1.6h183.2c0.9,0,1.6-0.7,1.6-1.6v-0.3
		C344,508.5,343.3,507.8,342.4,507.8z"/>
	<path fill="#E9EDED" d="M188.2,427.4h124.7c0.8,0,1.6,0.6,1.6,1.5l6.1,60.4c0.1,1-0.7,1.8-1.6,1.8H182.1c-1,0-1.7-0.8-1.6-1.8
		l6.2-60.4C186.6,428,187.3,427.4,188.2,427.4z"/>
</g>
<path fill="#0E263A" d="M264.4,390.7c-0.2-0.9-1-1.5-2-1.3l0,0c-0.6,0.1-1.2,0.2-1.8,0.2c-1.2,0-2-0.3-2.4-1s-0.6-1.5-0.6-2.6v-5
	c0-0.9,0.7-1.6,1.6-1.6h3.1c0.9,0,1.6-0.7,1.6-1.6v-1.1c0-0.9-0.7-1.6-1.6-1.6h-4.7l0,0V373c0-1.2-1.2-2-2.3-1.5l-2.9,1.4l0,0v9.3
	c-0.5-0.6-1.1-1.2-1.6-1.8c-0.6-0.6-1.1-1.2-1.6-1.8c-0.5-0.6-1-1.2-1.5-1.7c-0.1-0.1-0.2-0.3-0.3-0.4c-0.5-0.6-1.3-0.7-1.9-0.4
	l-1.3,0.6c-1,0.5-1.3,1.8-0.5,2.6c0.1,0.1,0.2,0.2,0.3,0.3c0.9,0.9,1.8,1.9,2.8,2.9c0.6,0.6,0.6,1.6,0,2.3c-0.3,0.4-0.7,0.8-1.1,1.2
	c-0.8,0.9-1.5,1.8-2.2,2.8c-0.7,0.9-1.4,1.9-2,2.8c0,0,0,0.1-0.1,0.1c-0.7,1.1,0.1,2.5,1.4,2.5h2.3c0.6,0,1.1-0.3,1.4-0.8
	c0.3-0.4,0.5-0.8,0.8-1.3c0.5-0.7,1-1.5,1.5-2.2s1.1-1.5,1.7-2.2c0.6-0.7,1.2-1.3,1.8-1.7v0.2l0,0c0,1.2,0.1,2.3,0.3,3.3
	c0.2,1,0.6,1.8,1.2,2.5s1.3,1.2,2.3,1.6c0.4,0.2,0.9,0.3,1.5,0.4c0.6,0.1,1.3,0.2,2.1,0.2c1.1,0,2.1-0.1,2.9-0.3
	c0.2-0.1,0.5-0.1,0.7-0.2c0.8-0.2,1.3-1,1.2-1.9L264.4,390.7z"/>
<rect x="-42.9" y="8.2" fill="#767983" width="587.5" height="20.9"/>
<rect x="-11.9" y="16.2" fill="#BABEBF" width="25.4" height="5"/>
<rect x="-43" y="199" fill="#BABEBF" width="53.1" height="7.9"/>
<rect x="10.1" y="199" fill="#BABEBF" width="55.1" height="7.9"/>
<rect x="19.9" y="16.2" opacity="0.55" fill="#BABEBF" enable-background="new    " width="25.4" height="5"/>
<rect x="121.2" y="16.2" fill="#BABEBF" width="17.3" height="5"/>
<rect x="146.4" y="16.2" fill="#BABEBF" width="17.3" height="5"/>
<rect x="171.1" y="16.2" fill="#BABEBF" width="17.3" height="5"/>
<rect x="195.1" y="16.2" fill="#BABEBF" width="17.3" height="5"/>
<rect x="162.8" y="30.1" width="380.3" height="151.6"/>
<rect x="-42.4" y="29.8" fill="#CCD0D6" width="85.1" height="166.3"/>
<rect x="-43.1" y="184.7" fill="#767983" width="587.2" height="12.3"/>
<line fill="none" stroke="#767983" stroke-miterlimit="10" x1="102" y1="30.1" x2="102" y2="185.1"/>
<rect x="8.9" y="209.3" opacity="0.47" fill="#767983" enable-background="new    " width="535.6" height="61"/>
<rect x="8.7" y="275.9" opacity="0.47" fill="#767983" enable-background="new    " width="534.9" height="70.8"/>
<rect x="9" y="276.4" opacity="0.63" fill="#7FA0A0" enable-background="new    " width="533.8" height="16"/>
<rect x="10" y="294.7" opacity="0.57" fill="#7FA0A0" enable-background="new    " width="533.8" height="16"/>
<rect x="9.4" y="253.5" opacity="0.57" fill="#2CB4FF" enable-background="new    " width="534.1" height="16.7"/>
<rect x="10" y="313.3" opacity="0.57" fill="#7FA0A0" enable-background="new    " width="533.8" height="16"/>
<g>
	<rect x="-39.9" y="258.6" fill="#767983" width="6.8" height="6.7"/>
	<g>
		<rect x="-24.9" y="259.4" fill="none" stroke="#767983" stroke-miterlimit="10" width="3.2" height="5.9"/>
		<rect x="-20.5" y="259.4" fill="none" stroke="#767983" stroke-miterlimit="10" width="1.6" height="5.9"/>
	</g>
	<g>
		<circle fill="#0E263A" cx="-6.2" cy="262.5" r="1.7"/>
		<g>
			<ellipse fill="none" stroke="#000000" stroke-miterlimit="10" cx="-6.2" cy="262.5" rx="4" ry="1.8"/>
		</g>
	</g>
	<line fill="none" stroke="#767983" stroke-width="0.5" stroke-miterlimit="10" x1="-41.9" y1="269.9" x2="8.7" y2="269.9"/>
	<line fill="none" stroke="#767983" stroke-width="0.5" stroke-miterlimit="10" x1="-41.9" y1="254.5" x2="8.7" y2="254.5"/>
</g>
<g>
	<rect x="-39.9" y="282.3" fill="#767983" width="6.8" height="6.7"/>
	<g>
		<rect x="-24.9" y="283.1" fill="none" stroke="#767983" stroke-miterlimit="10" width="3.2" height="5.9"/>
		<rect x="-20.5" y="283.1" fill="none" stroke="#767983" stroke-miterlimit="10" width="1.6" height="5.9"/>
	</g>
	<g>
		<circle fill="#0E263A" cx="-6.2" cy="286.2" r="1.7"/>
		<g>
			<ellipse fill="none" stroke="#000000" stroke-miterlimit="10" cx="-6.2" cy="286.2" rx="4" ry="1.8"/>
		</g>
	</g>
	<line fill="none" stroke="#767983" stroke-width="0.5" stroke-miterlimit="10" x1="-41.9" y1="293.6" x2="8.7" y2="293.6"/>
	<line fill="none" stroke="#767983" stroke-width="0.5" stroke-miterlimit="10" x1="-41.9" y1="278.2" x2="8.7" y2="278.2"/>
</g>
<g>
	<rect x="-39.9" y="299.3" fill="#767983" width="6.8" height="6.7"/>
	<g>
		<rect x="-24.9" y="300.1" fill="none" stroke="#767983" stroke-miterlimit="10" width="3.2" height="5.9"/>
		<rect x="-20.5" y="300.1" fill="none" stroke="#767983" stroke-miterlimit="10" width="1.6" height="5.9"/>
	</g>
	<g>
		<circle fill="#0E263A" cx="-6.2" cy="303.3" r="1.7"/>
		<g>
			<ellipse fill="none" stroke="#000000" stroke-miterlimit="10" cx="-6.2" cy="303.3" rx="4" ry="1.8"/>
		</g>
	</g>
	<line fill="none" stroke="#767983" stroke-width="0.5" stroke-miterlimit="10" x1="-41.9" y1="310.6" x2="8.7" y2="310.6"/>
	<line fill="none" stroke="#767983" stroke-width="0.5" stroke-miterlimit="10" x1="-41.9" y1="295.3" x2="8.7" y2="295.3"/>
</g>
<g>
	<rect x="-39.9" y="315.6" fill="#767983" width="6.8" height="6.7"/>
	<g>
		<rect x="-24.9" y="316.4" fill="none" stroke="#767983" stroke-miterlimit="10" width="3.2" height="5.9"/>
		<rect x="-20.5" y="316.4" fill="none" stroke="#767983" stroke-miterlimit="10" width="1.6" height="5.9"/>
	</g>
	<g>
		<circle fill="#0E263A" cx="-6.2" cy="319.5" r="1.7"/>
		<g>
			<ellipse fill="none" stroke="#000000" stroke-miterlimit="10" cx="-6.2" cy="319.5" rx="4" ry="1.8"/>
		</g>
	</g>
	<line fill="none" stroke="#767983" stroke-width="0.5" stroke-miterlimit="10" x1="-41.9" y1="326.8" x2="8.7" y2="326.8"/>
	<line fill="none" stroke="#767983" stroke-width="0.5" stroke-miterlimit="10" x1="-41.9" y1="311.5" x2="8.7" y2="311.5"/>
</g>
<g>
	<polygon fill="#0E263A" points="28.6,262.8 26.9,262.7 26.8,261.9 26.5,263.6 26.3,262.1 26.1,262.9 25.7,261.4 25.4,262.5
		25,260.3 24.6,262.7 24.3,262.7 23.9,260.8 23.5,262.3 23.2,260.5 22.8,263 22.4,259.1 21.8,262 21.2,258.3 20.5,262.6 19.7,254.7
		19.3,260.9 19,258.6 18.7,261.1 18.2,256.9 17.6,262.7 17.1,262.7 16.5,258.9 16,263.3 15.2,259.8 14.5,263.6 14.1,262.7
		13.2,262.7 12.9,261.2 12.4,263.2 11.9,262.2 11.7,262.7 10.6,262.8 11.7,262.8 11.9,262.5 12.5,263.8 12.9,262.2 13.2,262.8
		14,262.8 14.5,264.3 15.2,261.5 16,264.2 16.6,261 17,262.8 17.7,262.8 18.2,260.4 18.7,264 19,261.6 19.4,265.1 19.8,261.8
		20.5,268.7 21.2,260.5 21.9,263.7 22.3,260.7 22.8,264.2 23.2,261.7 23.5,263.2 23.8,261.6 24.1,262.8 24.6,262.8 25,261.4
		25.3,263.6 25.7,261.9 26.1,263.3 26.3,262.8 26.5,263.9 26.8,262.8 	"/>
</g>
<g>
	<polygon fill="#0E263A" points="33.4,263 35.9,262.9 36.1,262.5 36.5,263.5 36.8,262.6 37.1,263.1 37.7,262.2 38.2,262.8
		38.8,261.6 39.5,263 39.8,263 40.6,261.8 41.1,262.7 41.6,261.7 42.2,263.1 42.8,260.9 43.6,262.6 44.5,260.3 45.6,262.9
		46.8,258.2 47.5,261.9 47.9,260.5 48.4,262 49.2,259.5 50.2,262.9 50.8,262.9 51.7,260.7 52.5,263.3 53.8,261.2 54.9,263.5
		55.4,262.9 56.8,262.9 57.3,262.1 58,263.2 58.7,262.7 59.1,263 60.8,263 59.1,263 58.8,262.8 58,263.6 57.3,262.7 56.9,263
		55.6,263 54.8,263.9 53.7,262.2 52.5,263.9 51.7,262 51,263 49.9,263 49.2,261.6 48.5,263.7 48,262.3 47.4,264.4 46.8,262.4
		45.6,266.5 44.6,261.7 43.6,263.5 42.9,261.8 42.2,263.9 41.6,262.3 41.1,263.3 40.6,262.3 40.2,263 39.4,263 38.8,262.2
		38.3,263.5 37.7,262.5 37.1,263.3 36.8,263 36.4,263.7 36.1,263 	"/>
</g>
<rect x="162" y="176.7" fill="#CCD0D6" width="381.7" height="6"/>
<rect x="-42.2" y="176.9" fill="#E9EDED" width="203.2" height="6"/>
<rect x="155.3" y="30" fill="#E9EDED" width="6" height="145.8"/>
<line fill="none" stroke="#231F20" stroke-width="0.5" stroke-miterlimit="10" x1="11.5" y1="263" x2="224" y2="263"/>
<polygon fill="#FFFFFF" points="347.3,92.9 347.3,112.9 360,102.3 "/>
</svg>
