<?xml version="1.0" encoding="utf-8"?>
<!-- Generator: Adobe Illustrator 17.1.0, SVG Export Plug-In . SVG Version: 6.00 Build 0)  -->
<!DOCTYPE svg PUBLIC "-//W3C//DTD SVG 1.1//EN" "http://www.w3.org/Graphics/SVG/1.1/DTD/svg11.dtd">
<svg version="1.1" id="Calque_1" xmlns="http://www.w3.org/2000/svg" xmlns:xlink="http://www.w3.org/1999/xlink" x="0px" y="0px"
	 viewBox="0 0 154 228" enable-background="new 0 0 154 228" xml:space="preserve">
<g>
	<rect x="2.7" y="190.4" fill="#253545" width="151.1" height="37.4"/>
	<path fill="#253545" d="M153.8,182.4c0,3.8-2.8,6.9-6.4,6.9H8.4c-3.5,0-6.4-3.1-6.4-6.9V8.8C2,5,4.8,1.9,8.4,1.9h139.1
		c3.5,0,6.4,3.1,6.4,6.9V182.4z"/>
	<path opacity="0.1" fill="#FFFFFF" d="M149.4,177.3c0,3.6-2.7,6.5-6,6.5h-131c-3.3,0-6-2.9-6-6.5V13.9c0-3.6,2.7-6.5,6-6.5h131
		c3.3,0,6,2.9,6,6.5V177.3z"/>
	<g>
		<path fill="#D7D9D8" d="M133.5,120.1c0,30.6-24.8,55.3-55.3,55.3c-30.6,0-55.3-24.8-55.3-55.3c0-30.6,24.8-55.3,55.3-55.3
			C108.8,64.8,133.5,89.5,133.5,120.1z"/>
		<path fill="#D7D9D8" d="M109,30.7c0,11-14,19.9-31.1,19.9c-17.2,0-31.2-8.9-31.2-19.9c0-11,13.9-19.9,31.2-19.9
			C95.1,10.8,109,19.7,109,30.7z"/>
		<path d="M91.1,29.7c0,7.3-5.9,13.2-13.2,13.2c-7.3,0-13.2-5.9-13.2-13.2c0-7.3,5.9-13.2,13.2-13.2C85.2,16.5,91.1,22.4,91.1,29.7z
			"/>
		<path d="M122.3,120.1c0,24.3-19.7,44.1-44.1,44.1c-24.3,0-44.1-19.7-44.1-44.1C34.1,95.7,53.9,76,78.2,76
			C102.6,76,122.3,95.7,122.3,120.1z"/>
		<path fill="#1A1A1A" d="M55.8,30.7c0,1.7-1.4,3.1-3.1,3.1c-1.7,0-3.1-1.4-3.1-3.1c0-1.7,1.4-3.1,3.1-3.1
			C54.5,27.6,55.8,29,55.8,30.7z"/>
		<path fill="#1A1A1A" d="M107.5,30.7c0,1.7-1.4,3.1-3.1,3.1s-3.1-1.4-3.1-3.1c0-1.7,1.4-3.1,3.1-3.1S107.5,29,107.5,30.7z"/>
		<path fill="#1A1A1A" d="M52.8,79.1c0,1.7-1.4,3.1-3.1,3.1c-1.7,0-3.1-1.4-3.1-3.1c0-1.7,1.4-3.1,3.1-3.1
			C51.4,76,52.8,77.4,52.8,79.1z"/>
		<path fill="#1A1A1A" d="M112.1,79.1c0,1.7-1.4,3.1-3.1,3.1c-1.7,0-3.1-1.4-3.1-3.1c0-1.7,1.4-3.1,3.1-3.1
			C110.7,76,112.1,77.4,112.1,79.1z"/>
		<path fill="#1A1A1A" d="M49.8,159.2c0,1.7-1.4,3.1-3.1,3.1c-1.7,0-3.1-1.4-3.1-3.1c0-1.7,1.4-3.1,3.1-3.1
			C48.4,156.2,49.8,157.5,49.8,159.2z"/>
		<path fill="#1A1A1A" d="M112.1,159.2c0,1.7-1.4,3.1-3.1,3.1c-1.7,0-3.1-1.4-3.1-3.1c0-1.7,1.4-3.1,3.1-3.1
			C110.7,156.2,112.1,157.5,112.1,159.2z"/>
		<path d="M122.3,120.1c0,24.3-19.7,44.1-44.1,44.1c-24.3,0-44.1-19.7-44.1-44.1C34.1,95.7,53.9,76,78.2,76
			C102.6,76,122.3,95.7,122.3,120.1z"/>
	</g>
</g>
</svg>
